<svg xmlns="http://www.w3.org/2000/svg" xmlns:xlink="http://www.w3.org/1999/xlink" width="470" zoomAndPan="magnify" viewBox="0 0 352.5 299.999988" height="400" preserveAspectRatio="xMidYMid meet" version="1.0"><defs><clipPath id="19a1826fc4"><path d="M 0 0.210938 L 351.917969 0.210938 L 351.917969 299.785156 L 0 299.785156 Z M 0 0.210938 " clip-rule="nonzero"/></clipPath></defs><g clip-path="url(#19a1826fc4)"><path fill="#000000" d="M 194.804688 232.210938 C 197.253906 231.570312 199.597656 232.832031 202.027344 234.566406 C 217.449219 245.585938 233.503906 255.644531 249.609375 265.625 C 255.90625 269.523438 262.429688 273.039062 268.976562 276.507812 C 274.738281 279.566406 280.5 282.632812 286.371094 285.480469 C 296.886719 290.582031 307.667969 294.996094 319.070312 297.738281 C 323.890625 298.898438 328.769531 299.738281 333.746094 299.664062 C 337.46875 299.609375 341.097656 298.988281 344.390625 297.109375 C 348.910156 294.527344 351.046875 290.484375 351.496094 285.421875 C 351.910156 280.777344 350.863281 276.34375 349.523438 271.953125 C 347.554688 265.496094 344.570312 259.484375 341.269531 253.628906 C 333.753906 240.292969 324.726562 228.015625 315.015625 216.222656 C 309.664062 209.726562 304.117188 203.40625 298.265625 197.351562 C 295.484375 194.472656 292.722656 191.574219 289.929688 188.710938 C 288.183594 186.921875 286.796875 184.84375 285.191406 182.941406 C 284.546875 182.125 283.859375 181.34375 283.132812 180.601562 C 282.503906 179.996094 282.4375 179.492188 282.839844 178.707031 C 285.320312 173.875 287.402344 168.875 289.085938 163.710938 C 291.472656 156.367188 292.992188 148.847656 293.636719 141.15625 C 294.847656 126.90625 293.058594 113.039062 288.363281 99.554688 C 286.296875 93.578125 283.679688 87.855469 280.507812 82.386719 C 277.332031 76.917969 273.667969 71.800781 269.507812 67.039062 C 261.214844 57.515625 251.53125 49.753906 240.214844 44.121094 C 238.214844 43.15625 236.328125 42.007812 234.550781 40.679688 C 232.394531 39.019531 229.945312 38.097656 227.472656 37.171875 C 219.542969 34.199219 211.34375 32.441406 202.917969 31.632812 C 189.996094 30.394531 177.390625 31.9375 165.046875 35.847656 C 158.144531 38.03125 151.816406 41.410156 145.679688 45.191406 C 142.644531 47.0625 139.597656 48.90625 136.753906 51.058594 C 136.011719 51.617188 135.476562 51.632812 134.675781 51.15625 C 123.886719 44.753906 113.132812 38.292969 102.414062 31.777344 C 96.679688 28.257812 90.703125 25.222656 84.476562 22.667969 C 81.15625 21.320312 78.089844 19.351562 74.695312 18.15625 C 66.117188 15.140625 58.101562 10.800781 49.578125 7.65625 C 41.550781 4.691406 33.441406 2.019531 24.90625 0.949219 C 19.964844 0.328125 15.039062 0.257812 10.234375 1.921875 C 4.253906 3.992188 0.425781 9.238281 0.152344 15.5625 C -0.09375 21.167969 1.265625 26.441406 3.171875 31.617188 C 6.234375 39.914062 10.601562 47.539062 15.328125 54.96875 C 23.019531 67.066406 31.746094 78.394531 40.933594 89.382812 C 46.835938 96.4375 52.910156 103.34375 59.164062 110.09375 C 64.015625 115.351562 68.96875 120.511719 73.945312 125.644531 C 77.304688 129.109375 80.699219 132.53125 84.136719 135.914062 C 87.453125 139.191406 90.832031 142.40625 94.199219 145.636719 C 94.746094 146.140625 95.074219 146.761719 95.1875 147.5 C 96.898438 157.535156 99.9375 167.152344 104.472656 176.28125 C 108.773438 185.019531 114.230469 192.96875 120.84375 200.125 C 134.507812 214.851562 151.226562 224.375 170.636719 229.269531 C 176.675781 230.78125 182.808594 231.703125 189.023438 232.035156 C 190.757812 232.132812 192.488281 232.1875 194.804688 232.210938 Z M 287.371094 134.5625 C 287.414062 136.78125 287.132812 140.828125 286.613281 144.867188 C 284.96875 157.605469 280.929688 169.523438 274.375 180.570312 C 269.34375 189.03125 263.175781 196.558594 255.863281 203.152344 C 253.550781 205.246094 251.109375 207.1875 248.605469 209.054688 C 248.03125 209.480469 247.625 209.539062 247.0625 209.019531 C 246 208.035156 244.925781 207.054688 243.671875 206.304688 C 242.535156 205.625 241.355469 205.011719 240.277344 204.246094 C 235.230469 200.675781 230.089844 197.269531 224.390625 194.789062 C 219.859375 192.8125 215.910156 189.835938 211.710938 187.289062 C 210.09375 186.308594 208.527344 185.246094 207.019531 184.105469 C 203.90625 181.75 200.820312 179.351562 197.769531 176.910156 C 193.089844 173.175781 187.921875 170.105469 182.847656 166.929688 C 179.773438 165.007812 176.664062 163.132812 173.839844 160.875 C 170 157.808594 166.304688 154.5625 162.542969 151.398438 C 155.699219 145.636719 148.957031 139.753906 142.328125 133.746094 C 136.738281 128.695312 131.203125 123.59375 125.710938 118.441406 C 119.078125 112.195312 112.558594 105.835938 106.148438 99.363281 C 105.621094 98.832031 105.542969 98.367188 105.8125 97.683594 C 107.328125 93.773438 109.054688 89.957031 110.984375 86.234375 C 114.898438 78.789062 119.832031 72.085938 125.523438 65.917969 C 129.453125 61.65625 134.039062 58.199219 138.796875 54.957031 C 141.304688 53.257812 143.902344 51.707031 146.589844 50.308594 C 151.246094 47.859375 156.21875 46.234375 161.222656 44.6875 C 170.882812 41.703125 180.753906 39.96875 190.882812 39.84375 C 194.824219 39.800781 198.753906 39.972656 202.675781 40.367188 C 210.714844 41.171875 218.53125 42.957031 226.121094 45.730469 C 228.585938 46.589844 231.105469 47.261719 233.671875 47.746094 C 234.234375 47.859375 234.773438 47.9375 235.273438 48.234375 C 236.085938 48.71875 236.914062 49.171875 237.742188 49.636719 C 247.191406 54.933594 255.636719 61.492188 262.917969 69.542969 C 268.265625 75.429688 272.789062 81.890625 276.496094 88.929688 C 283.695312 102.625 287.378906 117.214844 287.371094 134.5625 Z M 314.636719 225.785156 C 314.914062 226.046875 314.988281 226.101562 315.042969 226.175781 C 321.105469 234.078125 327.117188 242.019531 332.441406 250.453125 C 336.792969 257.339844 340.792969 264.414062 343.691406 272.050781 C 345.230469 276.113281 346.316406 280.273438 346.164062 284.679688 C 346.003906 289.3125 343.570312 292.378906 339.101562 293.554688 C 336.222656 294.3125 333.292969 294.328125 330.363281 294.113281 C 324.765625 293.699219 319.34375 292.375 314.039062 290.613281 C 298.308594 285.390625 283.285156 278.5625 268.882812 270.390625 C 255.476562 262.78125 242.246094 254.875 229.429688 246.292969 C 225.976562 243.984375 222.359375 241.921875 218.925781 239.554688 C 212.988281 235.460938 207.519531 230.753906 201.640625 226.589844 C 198.117188 224.09375 194.644531 221.519531 191.179688 218.945312 C 180.554688 211.046875 170.121094 202.902344 159.878906 194.511719 C 154.269531 189.917969 148.667969 185.324219 143.164062 180.609375 C 138.40625 176.527344 133.648438 172.445312 128.898438 168.355469 C 126.585938 166.355469 124.347656 164.269531 122.019531 162.296875 C 120.910156 161.355469 120.347656 160.019531 119.324219 159.027344 C 117.128906 156.898438 114.847656 154.863281 112.523438 152.878906 C 109.714844 150.488281 106.9375 148.066406 104.316406 145.46875 C 101.855469 143.027344 99.488281 140.472656 96.851562 138.238281 C 92.425781 134.484375 88.035156 130.707031 83.992188 126.542969 C 82.566406 125.070312 81.121094 123.621094 79.597656 122.246094 C 78.359375 121.125 76.980469 120.089844 76.085938 118.6875 C 75.066406 117.09375 73.71875 115.820312 72.445312 114.484375 C 68.183594 110.015625 63.996094 105.476562 59.835938 100.910156 C 53.085938 93.503906 46.566406 85.898438 40.273438 78.097656 C 31.675781 67.402344 23.53125 56.378906 16.667969 44.46875 C 13.390625 38.777344 10.464844 32.917969 8.441406 26.644531 C 7.339844 23.234375 6.605469 19.761719 6.800781 16.148438 C 6.90625 14.253906 7.347656 12.476562 8.527344 10.9375 C 10.226562 8.71875 12.667969 7.898438 15.265625 7.519531 C 19.585938 6.894531 23.878906 7.34375 28.140625 8.175781 C 36.472656 9.808594 44.410156 12.675781 52.230469 15.910156 C 52.691406 16.101562 53.140625 16.320312 53.597656 16.523438 C 53.398438 16.621094 53.195312 16.640625 52.980469 16.585938 C 50.398438 16.152344 47.816406 15.734375 45.1875 16.121094 C 44.789062 16.175781 44.265625 16.136719 44.160156 16.621094 C 44.039062 17.1875 44.605469 17.308594 44.980469 17.5 C 46.042969 18.039062 47.214844 18.292969 48.324219 18.71875 C 46.097656 18.714844 43.898438 18.820312 41.734375 19.339844 C 38.363281 20.144531 35.488281 21.695312 33.714844 24.832031 C 32.074219 27.734375 31.863281 30.886719 32.199219 34.101562 C 32.730469 39.222656 34.5625 43.953125 36.714844 48.566406 C 40.761719 57.222656 45.910156 65.222656 51.53125 72.925781 C 61.585938 86.703125 72.839844 99.460938 84.597656 111.78125 C 89.664062 117.097656 94.835938 122.3125 100.105469 127.433594 C 107.636719 134.789062 115.332031 141.96875 123.191406 148.976562 C 134.449219 159.039062 145.996094 168.761719 157.824219 178.144531 C 173.210938 190.414062 189 202.140625 205.394531 213.035156 C 217.132812 220.835938 229.066406 228.328125 241.441406 235.089844 C 251.621094 240.652344 261.90625 246.003906 272.710938 250.300781 C 280.546875 253.417969 288.414062 256.371094 296.847656 257.429688 C 300.554688 257.894531 304.261719 257.976562 307.917969 256.980469 C 313.144531 255.5625 316.066406 252.015625 316.574219 246.671875 C 316.804688 244.242188 316.339844 241.910156 315.925781 239.558594 C 315.859375 239.183594 315.515625 238.722656 316.359375 238.878906 C 316.800781 238.960938 316.929688 238.539062 316.894531 238.167969 C 316.84375 237.761719 316.765625 237.359375 316.664062 236.960938 C 316.1875 234.9375 315.292969 233.0625 314.558594 231.113281 C 314.816406 231.375 315.039062 231.660156 315.230469 231.972656 C 317.980469 236.160156 320.582031 240.445312 323.449219 244.5625 C 323.589844 244.769531 323.742188 244.972656 323.902344 245.164062 C 323.957031 245.25 324.03125 245.304688 324.125 245.332031 C 324.21875 245.359375 324.3125 245.351562 324.402344 245.308594 C 324.488281 245.261719 324.550781 245.191406 324.578125 245.097656 C 324.609375 245 324.601562 244.910156 324.558594 244.820312 C 324.480469 244.578125 324.378906 244.347656 324.289062 244.113281 C 322.472656 239.488281 320.023438 235.191406 317.421875 230.976562 C 316.4375 229.378906 315.332031 227.839844 314.636719 225.785156 Z M 311.242188 232.269531 C 312.195312 233.675781 313.15625 235.078125 314.097656 236.492188 C 314.265625 236.761719 314.398438 237.046875 314.492188 237.347656 C 315.449219 240.078125 315.898438 242.890625 315.839844 245.785156 C 315.75 250.933594 312.734375 254.578125 307.699219 255.566406 C 303.84375 256.324219 299.980469 256.085938 296.136719 255.457031 C 288.917969 254.273438 281.949219 252.140625 275.175781 249.460938 C 262.460938 244.429688 250.351562 238.15625 238.527344 231.296875 C 224.140625 222.953125 210.253906 213.847656 196.667969 204.277344 C 183.214844 194.796875 170.0625 184.914062 157.214844 174.625 C 147.777344 167.039062 138.527344 159.238281 129.464844 151.21875 C 120.496094 143.324219 111.726562 135.214844 103.15625 126.894531 C 91.910156 116.023438 81.117188 104.71875 70.921875 92.847656 C 62.203125 82.699219 53.90625 72.234375 46.703125 60.941406 C 43.070312 55.242188 39.695312 49.40625 37.304688 43.0625 C 35.902344 39.332031 34.773438 35.535156 34.820312 31.484375 C 34.878906 26.304688 37.410156 23.046875 42.46875 21.898438 C 46.023438 21.09375 49.605469 21.492188 53.195312 21.796875 C 56.40625 22.070312 59.082031 23.621094 61.886719 24.964844 C 61.164062 25.050781 60.449219 25.023438 59.738281 25.058594 C 57.824219 25.144531 55.976562 25.511719 54.355469 26.605469 C 51.28125 28.679688 50.59375 31.742188 50.960938 35.167969 C 51.28125 38.148438 52.359375 40.917969 53.625 43.605469 C 56.738281 50.230469 60.886719 56.214844 65.15625 62.117188 C 69.539062 68.171875 74.28125 73.941406 79.109375 79.640625 C 83.53125 84.859375 87.941406 90.09375 92.835938 94.875 C 95.871094 97.820312 98.640625 100.996094 101.140625 104.40625 C 103.070312 107.054688 105.207031 109.546875 107.730469 111.667969 C 109.992188 113.574219 112.257812 115.476562 114.355469 117.570312 C 116.875 120.082031 119.234375 122.761719 121.992188 125.027344 C 124.28125 126.910156 126.621094 128.734375 128.851562 130.679688 C 130.4375 132.066406 131.824219 133.683594 133.402344 135.082031 C 136.328125 137.664062 139.40625 140.074219 142.316406 142.691406 C 149.8125 149.433594 157.496094 155.960938 165.234375 162.425781 C 176.363281 171.722656 187.757812 180.679688 199.273438 189.488281 C 211.914062 199.15625 225.164062 207.96875 238.121094 217.191406 C 240.046875 218.566406 241.855469 220.140625 244.199219 220.820312 C 253.363281 226.820312 262.777344 232.371094 272.695312 237.039062 C 278.175781 239.621094 283.644531 242.210938 289.453125 243.988281 C 293.289062 245.164062 297.15625 246.148438 301.230469 245.992188 C 306.21875 245.804688 309.484375 242.507812 309.511719 237.539062 C 309.515625 236.988281 309.511719 236.441406 309.511719 235.890625 C 310.007812 236.4375 310.441406 237.03125 310.816406 237.671875 C 310.96875 237.914062 311.152344 238.160156 311.492188 238.070312 C 311.828125 237.980469 311.886719 237.675781 311.898438 237.390625 C 311.90625 237.046875 311.894531 236.699219 311.855469 236.355469 C 311.734375 234.976562 311.46875 233.625 311.242188 232.269531 Z M 60.730469 30.6875 C 62.582031 30.683594 64.371094 31.054688 66.140625 31.515625 C 72.050781 33.066406 77.65625 35.4375 83.125 38.101562 C 96.785156 44.757812 109.523438 52.964844 122.09375 61.449219 C 122.371094 61.65625 122.628906 61.890625 122.859375 62.148438 C 123.117188 62.410156 123.171875 62.722656 122.855469 62.964844 C 122.425781 63.296875 122.441406 62.800781 122.296875 62.621094 C 121.917969 62.144531 121.449219 62.03125 120.984375 62.414062 C 120.523438 62.800781 120.480469 63.398438 120.96875 63.714844 C 121.714844 64.207031 121.269531 64.476562 120.917969 64.847656 C 119.042969 66.800781 117.226562 68.8125 115.503906 70.902344 C 109.890625 77.722656 105.128906 85.082031 101.46875 93.136719 C 101.011719 94.144531 100.964844 94.148438 100.210938 93.363281 C 98.253906 91.3125 96.316406 89.246094 94.363281 87.1875 C 88.792969 81.3125 83.277344 75.394531 78.078125 69.183594 C 72.820312 62.898438 67.695312 56.507812 63.316406 49.5625 C 60.964844 45.824219 58.765625 42 57.375 37.777344 C 56.890625 36.308594 56.480469 34.8125 56.574219 33.242188 C 56.660156 31.828125 57.273438 31.097656 58.660156 30.847656 C 59.347656 30.757812 60.039062 30.703125 60.730469 30.6875 Z M 100.0625 151.421875 C 114.785156 164.910156 129.699219 178.128906 145.0625 190.835938 C 160.414062 203.535156 176.191406 215.683594 192.109375 227.707031 C 170.398438 227.738281 151.058594 221.011719 134.085938 207.535156 C 115.871094 193.054688 104.4375 174.359375 100.0625 151.421875 Z M 299.253906 240.679688 C 298.121094 240.722656 296.8125 240.527344 295.515625 240.246094 C 289.871094 239.011719 284.613281 236.710938 279.449219 234.21875 C 269.074219 229.207031 259.398438 222.972656 249.546875 217.050781 C 248.808594 216.605469 248.960938 216.382812 249.570312 215.976562 C 254.699219 212.570312 259.476562 208.722656 263.898438 204.433594 C 267.605469 200.863281 270.980469 197.003906 274.023438 192.851562 C 274.550781 192.128906 274.804688 192.183594 275.386719 192.835938 C 276.679688 194.289062 277.382812 196.109375 278.570312 197.628906 C 283.203125 203.558594 288 209.367188 292.34375 215.523438 C 295.960938 220.648438 299.421875 225.871094 302.003906 231.617188 C 302.910156 233.632812 303.722656 235.691406 303.753906 237.949219 C 303.773438 239.253906 303.273438 239.910156 302.066406 240.386719 C 301.21875 240.714844 300.332031 240.671875 299.253906 240.679688 Z M 193.996094 177.140625 C 194.402344 177.058594 194.550781 177.257812 194.710938 177.378906 C 196.617188 178.832031 198.464844 180.363281 200.421875 181.742188 C 206.917969 186.316406 213.769531 190.34375 220.507812 194.546875 C 221.625 195.269531 222.8125 195.847656 224.070312 196.285156 C 226.289062 197.015625 228.238281 198.199219 230.089844 199.589844 C 230.71875 200.066406 231.371094 200.507812 232.046875 200.914062 C 236.140625 203.34375 239.867188 206.335938 243.996094 208.71875 C 244.675781 209.109375 245.28125 209.628906 245.933594 210.066406 C 246.367188 210.359375 246.410156 210.605469 245.941406 210.898438 C 245.40625 211.234375 244.890625 211.601562 244.363281 211.945312 C 242.769531 212.976562 243.167969 212.964844 241.667969 211.964844 C 226.589844 201.941406 212.0625 191.164062 197.75 180.085938 C 196.519531 179.136719 195.300781 178.167969 193.996094 177.140625 Z M 193.996094 177.140625 " fill-opacity="1" fill-rule="nonzero"/></g><path fill="#000000" d="M 133.351562 70.890625 C 133.179688 74.15625 134.140625 77.160156 135.476562 80.089844 C 139.046875 87.917969 144.265625 94.515625 150.347656 100.53125 C 155.484375 105.613281 160.976562 110.285156 166.476562 114.953125 C 167.941406 116.195312 169.476562 117.351562 170.988281 118.53125 C 171.179688 118.679688 171.449219 119.074219 171.683594 118.742188 C 171.894531 118.441406 171.460938 118.292969 171.257812 118.128906 C 163.652344 111.984375 156.464844 105.382812 149.695312 98.328125 C 145.152344 93.566406 140.960938 88.578125 138.160156 82.523438 C 136.175781 78.238281 135.226562 73.699219 134.351562 69.113281 C 134.253906 68.597656 134.394531 67.65625 133.820312 67.691406 C 133.128906 67.730469 133.441406 68.652344 133.371094 69.191406 C 133.328125 69.757812 133.320312 70.324219 133.351562 70.890625 Z M 133.351562 70.890625 " fill-opacity="1" fill-rule="nonzero"/><path fill="#000000" d="M 191.898438 168.847656 C 189.785156 167.75 187.929688 166.464844 186.097656 165.148438 C 183.691406 163.421875 181.257812 161.734375 178.738281 160.179688 C 177.683594 159.539062 176.726562 158.769531 175.867188 157.878906 C 174.617188 156.582031 173.253906 155.417969 171.78125 154.386719 C 171.40625 154.097656 171.054688 153.789062 170.71875 153.453125 C 170.542969 153.292969 170.410156 152.976562 170.117188 153.167969 C 169.855469 153.335938 169.84375 153.636719 169.921875 153.933594 C 170.09375 154.59375 170.492188 155.125 170.933594 155.621094 C 173.140625 158.113281 175.550781 160.394531 178.570312 161.855469 C 181.929688 163.476562 185.015625 165.535156 188.179688 167.480469 C 189.035156 168.003906 189.957031 168.417969 190.859375 168.867188 C 191.125 169 191.398438 169.226562 191.898438 168.847656 Z M 191.898438 168.847656 " fill-opacity="1" fill-rule="nonzero"/><path fill="#000000" d="M 274.054688 153.820312 C 264.335938 153.179688 254.964844 151.300781 245.554688 148.980469 C 245.722656 149.5625 246.109375 149.574219 246.410156 149.667969 C 252.777344 151.667969 259.273438 153.125 265.886719 154.035156 C 268.253906 154.351562 270.65625 154.371094 273.050781 154.296875 C 273.480469 154.339844 273.816406 154.179688 274.054688 153.820312 Z M 274.054688 153.820312 " fill-opacity="1" fill-rule="nonzero"/><path fill="#000000" d="M 223.597656 158.75 C 223.820312 158.820312 224.046875 158.804688 224.117188 158.535156 C 224.167969 158.363281 224.042969 158.25 223.886719 158.179688 C 222.601562 157.613281 221.382812 156.855469 219.917969 156.839844 C 219.570312 156.835938 219.035156 156.636719 218.9375 157.082031 C 218.84375 157.492188 219.394531 157.601562 219.710938 157.773438 C 220.921875 158.425781 222.21875 158.753906 223.597656 158.75 Z M 223.597656 158.75 " fill-opacity="1" fill-rule="nonzero"/><path fill="#000000" d="M 124.226562 179.414062 C 124.34375 179.566406 124.484375 179.734375 124.609375 179.910156 C 126.457031 182.472656 129.015625 184.308594 131.289062 186.433594 C 133.714844 188.699219 136.519531 190.484375 139.054688 192.609375 C 141.746094 194.863281 144.113281 197.433594 146.398438 200.085938 C 147.011719 200.800781 147.691406 201.464844 148.355469 202.132812 C 148.484375 202.261719 148.648438 202.574219 148.882812 202.308594 C 149.070312 202.09375 148.839844 201.90625 148.695312 201.75 C 145.117188 197.855469 141.882812 193.648438 137.839844 190.183594 C 134.398438 187.230469 131.316406 183.875 127.839844 180.953125 C 126.941406 180.199219 126.046875 179.460938 124.914062 179.082031 C 124.601562 178.980469 124.285156 178.859375 124.226562 179.414062 Z M 124.226562 179.414062 " fill-opacity="1" fill-rule="nonzero"/></svg>