<svg xmlns="http://www.w3.org/2000/svg" xmlns:xlink="http://www.w3.org/1999/xlink" width="470" zoomAndPan="magnify" viewBox="0 0 352.5 299.999988" height="400" preserveAspectRatio="xMidYMid meet" version="1.0"><defs><clipPath id="c1fb0907b8"><path d="M 0 0.210938 L 352 0.210938 L 352 299.785156 L 0 299.785156 Z M 0 0.210938 " clip-rule="nonzero"/></clipPath></defs><g clip-path="url(#c1fb0907b8)"><path fill="#ffffff" d="M 194.886719 232.257812 C 197.335938 231.621094 199.679688 232.882812 202.109375 234.617188 C 217.53125 245.636719 233.585938 255.699219 249.691406 265.679688 C 255.988281 269.582031 262.511719 273.09375 269.058594 276.566406 C 274.820312 279.625 280.582031 282.691406 286.453125 285.542969 C 296.96875 290.644531 307.75 295.058594 319.152344 297.800781 C 323.972656 298.960938 328.851562 299.804688 333.828125 299.726562 C 337.550781 299.671875 341.179688 299.054688 344.472656 297.171875 C 348.992188 294.589844 351.128906 290.546875 351.578125 285.484375 C 351.992188 280.835938 350.945312 276.402344 349.605469 272.011719 C 347.636719 265.550781 344.652344 259.539062 341.351562 253.683594 C 333.835938 240.34375 324.808594 228.0625 315.097656 216.265625 C 309.746094 209.769531 304.199219 203.445312 298.347656 197.390625 C 295.566406 194.511719 292.804688 191.613281 290.011719 188.75 C 288.265625 186.957031 286.878906 184.878906 285.273438 182.976562 C 284.628906 182.160156 283.941406 181.382812 283.214844 180.636719 C 282.585938 180.03125 282.519531 179.527344 282.921875 178.742188 C 285.402344 173.910156 287.484375 168.910156 289.167969 163.746094 C 291.554688 156.398438 293.074219 148.878906 293.71875 141.183594 C 294.929688 126.929688 293.140625 113.058594 288.445312 99.570312 C 286.378906 93.59375 283.761719 87.871094 280.589844 82.402344 C 277.414062 76.929688 273.75 71.8125 269.589844 67.050781 C 261.296875 57.523438 251.613281 49.761719 240.296875 44.128906 C 238.296875 43.160156 236.410156 42.011719 234.632812 40.679688 C 232.476562 39.023438 230.027344 38.101562 227.554688 37.171875 C 219.625 34.203125 211.425781 32.445312 203 31.636719 C 190.074219 30.394531 177.472656 31.941406 165.128906 35.847656 C 158.226562 38.035156 151.898438 41.414062 145.761719 45.195312 C 142.726562 47.066406 139.679688 48.914062 136.835938 51.0625 C 136.09375 51.625 135.558594 51.640625 134.757812 51.164062 C 123.96875 44.757812 113.214844 38.296875 102.496094 31.777344 C 96.761719 28.257812 90.785156 25.222656 84.558594 22.667969 C 81.238281 21.316406 78.171875 19.351562 74.777344 18.15625 C 66.199219 15.140625 58.183594 10.796875 49.660156 7.652344 C 41.632812 4.6875 33.523438 2.015625 24.988281 0.945312 C 20.046875 0.324219 15.121094 0.25 10.316406 1.917969 C 4.335938 3.988281 0.507812 9.234375 0.234375 15.5625 C -0.0117188 21.164062 1.347656 26.441406 3.253906 31.617188 C 6.316406 39.917969 10.683594 47.546875 15.410156 54.976562 C 23.101562 67.074219 31.828125 78.410156 41.015625 89.394531 C 46.917969 96.457031 52.992188 103.363281 59.246094 110.113281 C 64.097656 115.371094 69.046875 120.53125 74.027344 125.667969 C 77.386719 129.132812 80.78125 132.558594 84.21875 135.941406 C 87.535156 139.21875 90.914062 142.433594 94.28125 145.664062 C 94.828125 146.167969 95.15625 146.789062 95.269531 147.527344 C 96.980469 157.566406 100.019531 167.183594 104.554688 176.316406 C 108.855469 185.058594 114.3125 193.007812 120.925781 200.167969 C 134.589844 214.898438 151.308594 224.421875 170.71875 229.320312 C 176.757812 230.828125 182.890625 231.75 189.105469 232.085938 C 190.839844 232.179688 192.570312 232.234375 194.886719 232.257812 Z M 287.453125 134.589844 C 287.496094 136.808594 287.214844 140.855469 286.695312 144.894531 C 285.050781 157.636719 281.011719 169.554688 274.457031 180.605469 C 269.425781 189.070312 263.257812 196.597656 255.945312 203.195312 C 253.632812 205.289062 251.191406 207.230469 248.6875 209.097656 C 248.113281 209.523438 247.707031 209.582031 247.144531 209.0625 C 246.082031 208.078125 245.007812 207.097656 243.753906 206.347656 C 242.617188 205.667969 241.4375 205.050781 240.359375 204.289062 C 235.3125 200.71875 230.171875 197.308594 224.472656 194.828125 C 219.941406 192.851562 215.992188 189.875 211.792969 187.324219 C 210.175781 186.34375 208.609375 185.285156 207.101562 184.140625 C 203.984375 181.785156 200.902344 179.386719 197.851562 176.945312 C 193.171875 173.207031 188.003906 170.136719 182.929688 166.964844 C 179.855469 165.042969 176.746094 163.167969 173.921875 160.910156 C 170.082031 157.839844 166.386719 154.59375 162.625 151.425781 C 155.78125 145.664062 149.039062 139.777344 142.410156 133.769531 C 136.820312 128.722656 131.285156 123.617188 125.792969 118.460938 C 119.160156 112.214844 112.640625 105.855469 106.230469 99.378906 C 105.703125 98.851562 105.625 98.386719 105.894531 97.703125 C 107.410156 93.789062 109.136719 89.972656 111.066406 86.246094 C 114.980469 78.800781 119.914062 72.097656 125.605469 65.925781 C 129.535156 61.667969 134.121094 58.207031 138.878906 54.964844 C 141.386719 53.265625 143.984375 51.714844 146.671875 50.3125 C 151.328125 47.867188 156.300781 46.242188 161.304688 44.695312 C 170.964844 41.707031 180.835938 39.972656 190.964844 39.84375 C 194.90625 39.800781 198.835938 39.976562 202.757812 40.371094 C 210.796875 41.175781 218.613281 42.960938 226.203125 45.734375 C 228.667969 46.597656 231.1875 47.269531 233.753906 47.75 C 234.316406 47.863281 234.855469 47.945312 235.355469 48.242188 C 236.167969 48.722656 236.996094 49.179688 237.824219 49.640625 C 247.273438 54.941406 255.71875 61.5 263 69.554688 C 268.347656 75.441406 272.871094 81.90625 276.578125 88.941406 C 283.777344 102.644531 287.460938 117.234375 287.453125 134.589844 Z M 314.71875 225.832031 C 314.996094 226.09375 315.070312 226.148438 315.125 226.222656 C 321.1875 234.128906 327.199219 242.070312 332.523438 250.503906 C 336.875 257.394531 340.875 264.46875 343.769531 272.109375 C 345.3125 276.171875 346.398438 280.332031 346.246094 284.738281 C 346.085938 289.375 343.648438 292.441406 339.183594 293.617188 C 336.304688 294.375 333.371094 294.390625 330.445312 294.175781 C 324.847656 293.761719 319.425781 292.4375 314.121094 290.675781 C 298.390625 285.453125 283.367188 278.621094 268.964844 270.449219 C 255.558594 262.835938 242.328125 254.929688 229.511719 246.347656 C 226.058594 244.035156 222.4375 241.972656 219.007812 239.605469 C 213.070312 235.511719 207.601562 230.800781 201.722656 226.636719 C 198.195312 224.140625 194.726562 221.566406 191.261719 218.988281 C 180.632812 211.09375 170.203125 202.945312 159.960938 194.550781 C 154.351562 189.957031 148.75 185.363281 143.246094 180.644531 C 138.488281 176.5625 133.730469 172.476562 128.980469 168.386719 C 126.667969 166.390625 124.429688 164.300781 122.101562 162.328125 C 120.992188 161.390625 120.429688 160.050781 119.40625 159.058594 C 117.210938 156.929688 114.929688 154.894531 112.605469 152.910156 C 109.796875 150.519531 107.019531 148.097656 104.398438 145.496094 C 101.9375 143.054688 99.570312 140.5 96.933594 138.265625 C 92.507812 134.511719 88.117188 130.734375 84.074219 126.566406 C 82.644531 125.09375 81.203125 123.644531 79.679688 122.265625 C 78.441406 121.148438 77.0625 120.109375 76.167969 118.710938 C 75.148438 117.113281 73.800781 115.84375 72.527344 114.507812 C 68.265625 110.035156 64.078125 105.496094 59.917969 100.929688 C 53.167969 93.519531 46.648438 85.914062 40.355469 78.109375 C 31.757812 67.410156 23.613281 56.386719 16.75 44.472656 C 13.472656 38.78125 10.546875 32.917969 8.523438 26.644531 C 7.421875 23.234375 6.6875 19.761719 6.882812 16.144531 C 6.988281 14.253906 7.429688 12.476562 8.609375 10.933594 C 10.308594 8.714844 12.75 7.894531 15.347656 7.515625 C 19.667969 6.890625 23.960938 7.339844 28.222656 8.171875 C 36.554688 9.804688 44.492188 12.671875 52.3125 15.910156 C 52.773438 16.101562 53.222656 16.316406 53.679688 16.523438 C 53.480469 16.621094 53.277344 16.640625 53.0625 16.585938 C 50.480469 16.148438 47.898438 15.734375 45.269531 16.117188 C 44.871094 16.175781 44.347656 16.136719 44.242188 16.621094 C 44.121094 17.1875 44.6875 17.308594 45.0625 17.5 C 46.125 18.039062 47.296875 18.292969 48.40625 18.71875 C 46.179688 18.714844 43.980469 18.820312 41.816406 19.335938 C 38.445312 20.144531 35.570312 21.695312 33.796875 24.832031 C 32.15625 27.734375 31.945312 30.886719 32.28125 34.105469 C 32.8125 39.226562 34.644531 43.957031 36.796875 48.570312 C 40.84375 57.230469 45.992188 65.230469 51.613281 72.9375 C 61.667969 86.714844 72.921875 99.476562 84.679688 111.804688 C 89.746094 117.117188 94.917969 122.335938 100.183594 127.457031 C 107.71875 134.816406 115.414062 141.996094 123.273438 149.003906 C 134.53125 159.070312 146.078125 168.796875 157.90625 178.183594 C 173.292969 190.453125 189.082031 202.183594 205.476562 213.078125 C 217.214844 220.882812 229.148438 228.375 241.523438 235.136719 C 251.703125 240.703125 261.988281 246.054688 272.792969 250.355469 C 280.628906 253.472656 288.496094 256.425781 296.929688 257.484375 C 300.636719 257.949219 304.34375 258.027344 308 257.035156 C 313.226562 255.613281 316.144531 252.070312 316.65625 246.722656 C 316.886719 244.292969 316.421875 241.960938 316.007812 239.609375 C 315.941406 239.234375 315.597656 238.773438 316.441406 238.929688 C 316.882812 239.007812 317.011719 238.589844 316.976562 238.214844 C 316.925781 237.808594 316.847656 237.410156 316.746094 237.011719 C 316.269531 234.988281 315.375 233.109375 314.640625 231.160156 C 314.898438 231.421875 315.121094 231.710938 315.3125 232.019531 C 318.0625 236.210938 320.664062 240.496094 323.53125 244.613281 C 323.671875 244.820312 323.824219 245.023438 323.984375 245.214844 C 324.039062 245.300781 324.109375 245.355469 324.207031 245.382812 C 324.300781 245.410156 324.394531 245.402344 324.484375 245.359375 C 324.570312 245.3125 324.632812 245.242188 324.660156 245.148438 C 324.691406 245.050781 324.683594 244.960938 324.640625 244.871094 C 324.5625 244.632812 324.460938 244.398438 324.371094 244.164062 C 322.554688 239.539062 320.105469 235.242188 317.503906 231.023438 C 316.519531 229.425781 315.414062 227.886719 314.71875 225.832031 Z M 311.324219 232.320312 C 312.277344 233.726562 313.238281 235.128906 314.179688 236.542969 C 314.347656 236.8125 314.480469 237.097656 314.574219 237.398438 C 315.53125 240.128906 315.980469 242.941406 315.921875 245.835938 C 315.832031 250.988281 312.816406 254.632812 307.78125 255.621094 C 303.925781 256.375 300.0625 256.140625 296.21875 255.511719 C 289 254.328125 282.03125 252.195312 275.257812 249.511719 C 262.542969 244.480469 250.433594 238.207031 238.609375 231.34375 C 224.222656 223 210.335938 213.890625 196.75 204.320312 C 183.296875 194.835938 170.144531 184.953125 157.296875 174.660156 C 147.859375 167.074219 138.609375 159.269531 129.546875 151.25 C 120.578125 143.351562 111.808594 135.242188 103.238281 126.917969 C 91.992188 116.046875 81.199219 104.734375 71.003906 92.863281 C 62.285156 82.714844 53.988281 72.246094 46.785156 60.949219 C 43.152344 55.25 39.777344 49.414062 37.386719 43.066406 C 35.984375 39.335938 34.855469 35.539062 34.902344 31.488281 C 34.957031 26.304688 37.492188 23.046875 42.550781 21.898438 C 46.105469 21.09375 49.6875 21.492188 53.277344 21.796875 C 56.488281 22.070312 59.164062 23.621094 61.96875 24.964844 C 61.246094 25.050781 60.53125 25.023438 59.820312 25.058594 C 57.90625 25.144531 56.058594 25.511719 54.4375 26.605469 C 51.363281 28.679688 50.675781 31.742188 51.042969 35.167969 C 51.363281 38.148438 52.441406 40.921875 53.707031 43.609375 C 56.820312 50.234375 60.96875 56.222656 65.238281 62.125 C 69.621094 68.183594 74.363281 73.953125 79.191406 79.65625 C 83.613281 84.871094 88.023438 90.109375 92.917969 94.890625 C 95.953125 97.835938 98.722656 101.011719 101.222656 104.425781 C 103.152344 107.074219 105.289062 109.566406 107.8125 111.6875 C 110.074219 113.597656 112.339844 115.5 114.4375 117.59375 C 116.957031 120.105469 119.316406 122.785156 122.074219 125.050781 C 124.363281 126.933594 126.703125 128.757812 128.933594 130.707031 C 130.519531 132.09375 131.902344 133.710938 133.484375 135.105469 C 136.410156 137.691406 139.488281 140.101562 142.398438 142.71875 C 149.894531 149.464844 157.578125 155.992188 165.316406 162.457031 C 176.445312 171.753906 187.839844 180.714844 199.355469 189.527344 C 211.996094 199.199219 225.246094 208.011719 238.203125 217.238281 C 240.128906 218.609375 241.9375 220.1875 244.28125 220.867188 C 253.445312 226.867188 262.859375 232.417969 272.777344 237.089844 C 278.253906 239.667969 283.726562 242.261719 289.535156 244.039062 C 293.371094 245.214844 297.238281 246.199219 301.3125 246.042969 C 306.300781 245.855469 309.566406 242.558594 309.59375 237.589844 C 309.597656 237.039062 309.59375 236.488281 309.59375 235.941406 C 310.089844 236.488281 310.523438 237.082031 310.898438 237.722656 C 311.050781 237.964844 311.234375 238.210938 311.574219 238.121094 C 311.910156 238.03125 311.96875 237.726562 311.980469 237.441406 C 311.988281 237.097656 311.976562 236.75 311.9375 236.40625 C 311.816406 235.027344 311.550781 233.671875 311.324219 232.320312 Z M 60.8125 30.6875 C 62.664062 30.683594 64.453125 31.054688 66.222656 31.519531 C 72.132812 33.070312 77.738281 35.4375 83.207031 38.105469 C 96.867188 44.761719 109.605469 52.972656 122.175781 61.460938 C 122.453125 61.664062 122.710938 61.898438 122.941406 62.15625 C 123.199219 62.417969 123.253906 62.730469 122.9375 62.976562 C 122.507812 63.308594 122.523438 62.808594 122.378906 62.628906 C 122 62.15625 121.53125 62.039062 121.066406 62.425781 C 120.601562 62.808594 120.5625 63.40625 121.050781 63.726562 C 121.796875 64.214844 121.351562 64.488281 121 64.855469 C 119.125 66.8125 117.308594 68.824219 115.585938 70.914062 C 109.972656 77.734375 105.210938 85.097656 101.550781 93.152344 C 101.09375 94.160156 101.046875 94.167969 100.292969 93.378906 C 98.335938 91.328125 96.398438 89.257812 94.445312 87.203125 C 88.875 81.328125 83.359375 75.40625 78.160156 69.191406 C 72.902344 62.90625 67.777344 56.515625 63.398438 49.566406 C 61.046875 45.828125 58.847656 42.003906 57.457031 37.78125 C 56.972656 36.3125 56.5625 34.816406 56.65625 33.246094 C 56.742188 31.828125 57.355469 31.097656 58.742188 30.851562 C 59.429688 30.761719 60.121094 30.707031 60.8125 30.6875 Z M 100.144531 151.453125 C 114.867188 164.945312 129.78125 178.164062 145.144531 190.875 C 160.496094 203.578125 176.273438 215.730469 192.191406 227.753906 C 170.480469 227.785156 151.140625 221.058594 134.167969 207.578125 C 115.953125 193.09375 104.519531 174.394531 100.144531 151.453125 Z M 299.335938 240.730469 C 298.203125 240.773438 296.894531 240.578125 295.597656 240.296875 C 289.953125 239.0625 284.695312 236.761719 279.53125 234.265625 C 269.15625 229.257812 259.480469 223.019531 249.628906 217.09375 C 248.890625 216.652344 249.042969 216.425781 249.652344 216.023438 C 254.78125 212.613281 259.558594 208.765625 263.980469 204.476562 C 267.6875 200.90625 271.0625 197.042969 274.105469 192.890625 C 274.632812 192.167969 274.886719 192.222656 275.46875 192.875 C 276.761719 194.328125 277.464844 196.148438 278.652344 197.667969 C 283.285156 203.601562 288.082031 209.410156 292.425781 215.566406 C 296.042969 220.691406 299.503906 225.917969 302.085938 231.664062 C 302.992188 233.679688 303.804688 235.742188 303.835938 237.996094 C 303.855469 239.304688 303.355469 239.960938 302.148438 240.433594 C 301.300781 240.765625 300.414062 240.722656 299.335938 240.730469 Z M 194.078125 177.175781 C 194.484375 177.09375 194.632812 177.292969 194.792969 177.414062 C 196.699219 178.867188 198.546875 180.398438 200.503906 181.777344 C 207 186.355469 213.851562 190.382812 220.589844 194.585938 C 221.707031 195.308594 222.894531 195.886719 224.152344 196.324219 C 226.371094 197.054688 228.320312 198.242188 230.171875 199.632812 C 230.800781 200.109375 231.453125 200.550781 232.128906 200.953125 C 236.222656 203.382812 239.949219 206.378906 244.078125 208.761719 C 244.757812 209.152344 245.363281 209.671875 246.015625 210.109375 C 246.449219 210.402344 246.492188 210.648438 246.023438 210.945312 C 245.488281 211.277344 244.972656 211.644531 244.445312 211.988281 C 242.851562 213.019531 243.25 213.007812 241.75 212.007812 C 226.671875 201.984375 212.144531 191.203125 197.832031 180.125 C 196.601562 179.171875 195.382812 178.203125 194.078125 177.175781 Z M 194.078125 177.175781 " fill-opacity="1" fill-rule="nonzero"/></g><path fill="#ffffff" d="M 133.433594 70.902344 C 133.261719 74.167969 134.222656 77.171875 135.558594 80.101562 C 139.128906 87.929688 144.347656 94.535156 150.429688 100.550781 C 155.566406 105.632812 161.058594 110.304688 166.558594 114.972656 C 168.023438 116.214844 169.554688 117.375 171.070312 118.554688 C 171.261719 118.703125 171.53125 119.097656 171.765625 118.765625 C 171.976562 118.464844 171.542969 118.316406 171.339844 118.152344 C 163.734375 112.003906 156.546875 105.402344 149.777344 98.347656 C 145.234375 93.582031 141.042969 88.589844 138.242188 82.539062 C 136.257812 78.25 135.308594 73.710938 134.433594 69.125 C 134.335938 68.609375 134.476562 67.664062 133.902344 67.699219 C 133.210938 67.742188 133.523438 68.664062 133.453125 69.199219 C 133.410156 69.765625 133.402344 70.332031 133.433594 70.902344 Z M 133.433594 70.902344 " fill-opacity="1" fill-rule="nonzero"/><path fill="#ffffff" d="M 191.980469 168.882812 C 189.867188 167.785156 188.011719 166.5 186.179688 165.183594 C 183.773438 163.457031 181.339844 161.769531 178.820312 160.210938 C 177.761719 159.570312 176.808594 158.800781 175.949219 157.910156 C 174.699219 156.613281 173.335938 155.449219 171.863281 154.417969 C 171.488281 154.128906 171.136719 153.816406 170.800781 153.484375 C 170.625 153.324219 170.492188 153.007812 170.199219 153.195312 C 169.933594 153.367188 169.925781 153.667969 170.003906 153.964844 C 170.175781 154.625 170.574219 155.152344 171.015625 155.652344 C 173.222656 158.144531 175.632812 160.425781 178.652344 161.886719 C 182.011719 163.511719 185.097656 165.570312 188.261719 167.511719 C 189.117188 168.035156 190.039062 168.453125 190.941406 168.902344 C 191.203125 169.03125 191.480469 169.261719 191.980469 168.882812 Z M 191.980469 168.882812 " fill-opacity="1" fill-rule="nonzero"/><path fill="#ffffff" d="M 274.136719 153.851562 C 264.417969 153.210938 255.046875 151.332031 245.636719 149.011719 C 245.804688 149.59375 246.191406 149.601562 246.492188 149.695312 C 252.859375 151.699219 259.355469 153.152344 265.96875 154.066406 C 268.335938 154.382812 270.738281 154.402344 273.132812 154.328125 C 273.5625 154.367188 273.898438 154.210938 274.136719 153.851562 Z M 274.136719 153.851562 " fill-opacity="1" fill-rule="nonzero"/><path fill="#ffffff" d="M 223.679688 158.78125 C 223.902344 158.851562 224.128906 158.835938 224.199219 158.566406 C 224.25 158.394531 224.125 158.28125 223.96875 158.210938 C 222.683594 157.644531 221.464844 156.886719 220 156.871094 C 219.652344 156.867188 219.117188 156.667969 219.019531 157.109375 C 218.925781 157.523438 219.476562 157.632812 219.792969 157.804688 C 221.003906 158.457031 222.300781 158.785156 223.679688 158.78125 Z M 223.679688 158.78125 " fill-opacity="1" fill-rule="nonzero"/><path fill="#ffffff" d="M 124.308594 179.449219 C 124.425781 179.601562 124.566406 179.769531 124.691406 179.945312 C 126.539062 182.507812 129.097656 184.34375 131.371094 186.46875 C 133.796875 188.738281 136.601562 190.523438 139.136719 192.648438 C 141.828125 194.902344 144.195312 197.472656 146.480469 200.125 C 147.09375 200.839844 147.773438 201.503906 148.4375 202.175781 C 148.566406 202.304688 148.730469 202.617188 148.964844 202.351562 C 149.152344 202.136719 148.921875 201.945312 148.777344 201.789062 C 145.199219 197.898438 141.960938 193.6875 137.921875 190.222656 C 134.476562 187.265625 131.398438 183.910156 127.921875 180.988281 C 127.023438 180.234375 126.128906 179.496094 124.996094 179.121094 C 124.683594 179.015625 124.367188 178.894531 124.308594 179.449219 Z M 124.308594 179.449219 " fill-opacity="1" fill-rule="nonzero"/></svg>